<svg id="my-svg" width="100%" xmlns="http://www.w3.org/2000/svg" xmlns:xlink="http://www.w3.org/1999/xlink" class="flowchart" style="max-width: 2971.5px; background-color: transparent;" viewBox="0 0 2971.5 1713" role="graphics-document document" aria-roledescription="flowchart-v2"><style>#my-svg{font-family:"trebuchet ms",verdana,arial,sans-serif;font-size:16px;fill:#333;}@keyframes edge-animation-frame{from{stroke-dashoffset:0;}}@keyframes dash{to{stroke-dashoffset:0;}}#my-svg .edge-animation-slow{stroke-dasharray:9,5!important;stroke-dashoffset:900;animation:dash 50s linear infinite;stroke-linecap:round;}#my-svg .edge-animation-fast{stroke-dasharray:9,5!important;stroke-dashoffset:900;animation:dash 20s linear infinite;stroke-linecap:round;}#my-svg .error-icon{fill:#552222;}#my-svg .error-text{fill:#552222;stroke:#552222;}#my-svg .edge-thickness-normal{stroke-width:1px;}#my-svg .edge-thickness-thick{stroke-width:3.5px;}#my-svg .edge-pattern-solid{stroke-dasharray:0;}#my-svg .edge-thickness-invisible{stroke-width:0;fill:none;}#my-svg .edge-pattern-dashed{stroke-dasharray:3;}#my-svg .edge-pattern-dotted{stroke-dasharray:2;}#my-svg .marker{fill:#333333;stroke:#333333;}#my-svg .marker.cross{stroke:#333333;}#my-svg svg{font-family:"trebuchet ms",verdana,arial,sans-serif;font-size:16px;}#my-svg p{margin:0;}#my-svg .label{font-family:"trebuchet ms",verdana,arial,sans-serif;color:#333;}#my-svg .cluster-label text{fill:#333;}#my-svg .cluster-label span{color:#333;}#my-svg .cluster-label span p{background-color:transparent;}#my-svg .label text,#my-svg span{fill:#333;color:#333;}#my-svg .node rect,#my-svg .node circle,#my-svg .node ellipse,#my-svg .node polygon,#my-svg .node path{fill:#ECECFF;stroke:#9370DB;stroke-width:1px;}#my-svg .rough-node .label text,#my-svg .node .label text,#my-svg .image-shape .label,#my-svg .icon-shape .label{text-anchor:middle;}#my-svg .node .katex path{fill:#000;stroke:#000;stroke-width:1px;}#my-svg .rough-node .label,#my-svg .node .label,#my-svg .image-shape .label,#my-svg .icon-shape .label{text-align:center;}#my-svg .node.clickable{cursor:pointer;}#my-svg .root .anchor path{fill:#333333!important;stroke-width:0;stroke:#333333;}#my-svg .arrowheadPath{fill:#333333;}#my-svg .edgePath .path{stroke:#333333;stroke-width:1px;}#my-svg .flowchart-link{stroke:#333333;fill:none;}#my-svg .edgeLabel{background-color:rgba(232,232,232, 0.8);text-align:center;}#my-svg .edgeLabel p{background-color:rgba(232,232,232, 0.8);}#my-svg .edgeLabel rect{opacity:0.5;background-color:rgba(232,232,232, 0.8);fill:rgba(232,232,232, 0.8);}#my-svg .labelBkg{background-color:rgba(232, 232, 232, 0.5);}#my-svg .cluster rect{fill:#ffffde;stroke:#aaaa33;stroke-width:1px;}#my-svg .cluster text{fill:#333;}#my-svg .cluster span{color:#333;}#my-svg div.mermaidTooltip{position:absolute;text-align:center;max-width:200px;padding:2px;font-family:"trebuchet ms",verdana,arial,sans-serif;font-size:12px;background:hsl(80, 100%, 96.2745098039%);border:1px solid #aaaa33;border-radius:2px;pointer-events:none;z-index:100;}#my-svg .flowchartTitleText{text-anchor:middle;font-size:18px;fill:#333;}#my-svg rect.text{fill:none;stroke-width:0;}#my-svg .icon-shape,#my-svg .image-shape{background-color:rgba(232,232,232, 0.8);text-align:center;}#my-svg .icon-shape p,#my-svg .image-shape p{background-color:rgba(232,232,232, 0.8);padding:2px;}#my-svg .icon-shape .label rect,#my-svg .image-shape .label rect{opacity:0.5;background-color:rgba(232,232,232, 0.8);fill:rgba(232,232,232, 0.8);}#my-svg .label-icon{display:inline-block;height:1em;overflow:visible;vertical-align:-0.125em;}#my-svg .node .label-icon path{fill:currentColor;stroke:revert;stroke-width:revert;}#my-svg .node .neo-node{stroke:#9370DB;}#my-svg [data-look="neo"].node rect,#my-svg [data-look="neo"].cluster rect,#my-svg [data-look="neo"].node polygon{stroke:#9370DB;filter:drop-shadow(1px 2px 2px rgba(185, 185, 185, 1));}#my-svg [data-look="neo"].swimlane.cluster rect{filter:none;}#my-svg [data-look="neo"].node path{stroke:#9370DB;stroke-width:1px;}#my-svg [data-look="neo"].node .outer-path{filter:drop-shadow(1px 2px 2px rgba(185, 185, 185, 1));}#my-svg [data-look="neo"].node .neo-line path{stroke:#9370DB;filter:none;}#my-svg [data-look="neo"].node circle{stroke:#9370DB;filter:drop-shadow(1px 2px 2px rgba(185, 185, 185, 1));}#my-svg [data-look="neo"].node circle .state-start{fill:#000000;}#my-svg [data-look="neo"].icon-shape .icon{fill:#9370DB;filter:drop-shadow(1px 2px 2px rgba(185, 185, 185, 1));}#my-svg [data-look="neo"].icon-shape .icon-neo path{stroke:#9370DB;filter:drop-shadow(1px 2px 2px rgba(185, 185, 185, 1));}#my-svg :root{--mermaid-font-family:"trebuchet ms",verdana,arial,sans-serif;}</style><g><marker id="my-svg_flowchart-v2-pointEnd" class="marker flowchart-v2" viewBox="0 0 10 10" refX="5" refY="5" markerUnits="userSpaceOnUse" markerWidth="8" markerHeight="8" orient="auto"><path d="M 0 0 L 10 5 L 0 10 z" class="arrowMarkerPath" style="stroke-width: 1; stroke-dasharray: 1, 0;"/></marker><marker id="my-svg_flowchart-v2-pointStart" class="marker flowchart-v2" viewBox="0 0 10 10" refX="4.5" refY="5" markerUnits="userSpaceOnUse" markerWidth="8" markerHeight="8" orient="auto"><path d="M 0 5 L 10 10 L 10 0 z" class="arrowMarkerPath" style="stroke-width: 1; stroke-dasharray: 1, 0;"/></marker><marker id="my-svg_flowchart-v2-pointEnd-margin" class="marker flowchart-v2" viewBox="0 0 11.5 14" refX="11.5" refY="7" markerUnits="userSpaceOnUse" markerWidth="10.5" markerHeight="14" orient="auto"><path d="M 0 0 L 11.5 7 L 0 14 z" class="arrowMarkerPath" style="stroke-width: 0; stroke-dasharray: 1, 0;"/></marker><marker id="my-svg_flowchart-v2-pointStart-margin" class="marker flowchart-v2" viewBox="0 0 11.5 14" refX="1" refY="7" markerUnits="userSpaceOnUse" markerWidth="11.5" markerHeight="14" orient="auto"><polygon points="0,7 11.5,14 11.5,0" class="arrowMarkerPath" style="stroke-width: 0; stroke-dasharray: 1, 0;"/></marker><marker id="my-svg_flowchart-v2-circleEnd" class="marker flowchart-v2" viewBox="0 0 10 10" refX="11" refY="5" markerUnits="userSpaceOnUse" markerWidth="11" markerHeight="11" orient="auto"><circle cx="5" cy="5" r="5" class="arrowMarkerPath" style="stroke-width: 1; stroke-dasharray: 1, 0;"/></marker><marker id="my-svg_flowchart-v2-circleStart" class="marker flowchart-v2" viewBox="0 0 10 10" refX="-1" refY="5" markerUnits="userSpaceOnUse" markerWidth="11" markerHeight="11" orient="auto"><circle cx="5" cy="5" r="5" class="arrowMarkerPath" style="stroke-width: 1; stroke-dasharray: 1, 0;"/></marker><marker id="my-svg_flowchart-v2-circleEnd-margin" class="marker flowchart-v2" viewBox="0 0 10 10" refY="5" refX="12.25" markerUnits="userSpaceOnUse" markerWidth="14" markerHeight="14" orient="auto"><circle cx="5" cy="5" r="5" class="arrowMarkerPath" style="stroke-width: 0; stroke-dasharray: 1, 0;"/></marker><marker id="my-svg_flowchart-v2-circleStart-margin" class="marker flowchart-v2" viewBox="0 0 10 10" refX="-2" refY="5" markerUnits="userSpaceOnUse" markerWidth="14" markerHeight="14" orient="auto"><circle cx="5" cy="5" r="5" class="arrowMarkerPath" style="stroke-width: 0; stroke-dasharray: 1, 0;"/></marker><marker id="my-svg_flowchart-v2-crossEnd" class="marker cross flowchart-v2" viewBox="0 0 11 11" refX="12" refY="5.2" markerUnits="userSpaceOnUse" markerWidth="11" markerHeight="11" orient="auto"><path d="M 1,1 l 9,9 M 10,1 l -9,9" class="arrowMarkerPath" style="stroke-width: 2; stroke-dasharray: 1, 0;"/></marker><marker id="my-svg_flowchart-v2-crossStart" class="marker cross flowchart-v2" viewBox="0 0 11 11" refX="-1" refY="5.2" markerUnits="userSpaceOnUse" markerWidth="11" markerHeight="11" orient="auto"><path d="M 1,1 l 9,9 M 10,1 l -9,9" class="arrowMarkerPath" style="stroke-width: 2; stroke-dasharray: 1, 0;"/></marker><marker id="my-svg_flowchart-v2-crossEnd-margin" class="marker cross flowchart-v2" viewBox="0 0 15 15" refX="17.7" refY="7.5" markerUnits="userSpaceOnUse" markerWidth="12" markerHeight="12" orient="auto"><path d="M 1,1 L 14,14 M 1,14 L 14,1" class="arrowMarkerPath" style="stroke-width: 2.5;"/></marker><marker id="my-svg_flowchart-v2-crossStart-margin" class="marker cross flowchart-v2" viewBox="0 0 15 15" refX="-3.5" refY="7.5" markerUnits="userSpaceOnUse" markerWidth="12" markerHeight="12" orient="auto"><path d="M 1,1 L 14,14 M 1,14 L 14,1" class="arrowMarkerPath" style="stroke-width: 2.5; stroke-dasharray: 1, 0;"/></marker><g class="root"><g class="clusters"><g class="cluster" id="my-svg-Entra" data-look="classic"><rect style="" x="8" y="787" width="750.03125" height="645"/><g class="cluster-label" transform="translate(265.2421875, 787)"><foreignObject width="235.546875" height="24"><div xmlns="http://www.w3.org/1999/xhtml" style="display: table-cell; white-space: nowrap; line-height: 1.5;"><span class="nodeLabel"><p>Microsoft Entra ID (multi-tenant)</p></span></div></foreignObject></g></g><g class="cluster" id="my-svg-API" data-look="classic"><rect style="" x="778.03125" y="562" width="1890.46875" height="1143"/><g class="cluster-label" transform="translate(1581.265625, 562)"><foreignObject width="284" height="24"><div xmlns="http://www.w3.org/1999/xhtml" style="display: table-cell; white-space: nowrap; line-height: 1.5;"><span class="nodeLabel"><p>PoLocalCompare.Api (BFF, single origin)</p></span></div></foreignObject></g></g><g class="cluster" id="my-svg-Browser" data-look="classic"><rect style="" x="903.03125" y="8" width="1644.546875" height="432"/><g class="cluster-label" transform="translate(1594.7109375, 8)"><foreignObject width="261.1875" height="24"><div xmlns="http://www.w3.org/1999/xhtml" style="display: table-cell; white-space: nowrap; line-height: 1.5;"><span class="nodeLabel"><p>Browser (Blazor WASM — token-free)</p></span></div></foreignObject></g></g></g><g class="edgePaths"><path d="M1569.07,95.79L1518.822,104.492C1468.574,113.193,1368.078,130.597,1317.83,144.798C1267.582,159,1267.582,170,1267.582,175.5L1267.582,181" id="my-svg-L_SPA_ASP_0" class="edge-thickness-normal edge-pattern-solid edge-thickness-normal edge-pattern-solid flowchart-link" style=";" data-edge="true" data-et="edge" data-id="L_SPA_ASP_0" data-points="W3sieCI6MTU2OS4wNzAzMTI1LCJ5Ijo5NS43ODk4NjkwNjg3MDU1Nn0seyJ4IjoxMjY3LjU4MjAzMTI1LCJ5IjoxNDh9LHsieCI6MTI2Ny41ODIwMzEyNSwieSI6MTg1fV0=" data-look="classic" marker-end="url(#my-svg_flowchart-v2-pointEnd)"/><path d="M1218.629,239L1200.196,249.167C1181.763,259.333,1144.897,279.667,1126.464,304.5C1108.031,329.333,1108.031,358.667,1108.031,382C1108.031,405.333,1108.031,422.667,1108.031,441.5C1108.031,460.333,1108.031,480.667,1108.031,501C1108.031,521.333,1108.031,541.667,1108.031,564.5C1108.031,587.333,1108.031,612.667,1108.031,642C1108.031,671.333,1108.031,704.667,1108.031,729.5C1108.031,754.333,1108.031,770.667,1117.186,784.643C1126.341,798.619,1144.65,810.238,1153.804,816.047L1162.959,821.857" id="my-svg-L_ASP_ME_0" class="edge-thickness-normal edge-pattern-solid edge-thickness-normal edge-pattern-solid flowchart-link" style=";" data-edge="true" data-et="edge" data-id="L_ASP_ME_0" data-points="W3sieCI6MTIxOC42Mjg5NTA2MzkyMDQ1LCJ5IjoyMzl9LHsieCI6MTEwOC4wMzEyNSwieSI6MzAwfSx7IngiOjExMDguMDMxMjUsInkiOjM4OH0seyJ4IjoxMTA4LjAzMTI1LCJ5Ijo0NDB9LHsieCI6MTEwOC4wMzEyNSwieSI6NTAxfSx7IngiOjExMDguMDMxMjUsInkiOjU2Mn0seyJ4IjoxMTA4LjAzMTI1LCJ5Ijo2Mzh9LHsieCI6MTEwOC4wMzEyNSwieSI6NzM4fSx7IngiOjExMDguMDMxMjUsInkiOjc4N30seyJ4IjoxMTY2LjMzNjQ3MDE3MDQ1NDUsInkiOjgyNH1d" data-look="classic" marker-end="url(#my-svg_flowchart-v2-pointEnd)"/><path d="M1354.951,824L1368.04,817.833C1381.129,811.667,1407.307,799.333,1420.396,785C1433.484,770.667,1433.484,754.333,1433.484,729.5C1433.484,704.667,1433.484,671.333,1433.484,642C1433.484,612.667,1433.484,587.333,1433.484,564.5C1433.484,541.667,1433.484,521.333,1433.484,501C1433.484,480.667,1433.484,460.333,1433.484,441.5C1433.484,422.667,1433.484,405.333,1433.484,382C1433.484,358.667,1433.484,329.333,1414.907,304.812C1396.329,280.291,1359.173,260.583,1340.595,250.729L1322.018,240.874" id="my-svg-L_ME_ASP_0" class="edge-thickness-normal edge-pattern-solid edge-thickness-normal edge-pattern-solid flowchart-link" style=";" data-edge="true" data-et="edge" data-id="L_ME_ASP_0" data-points="W3sieCI6MTM1NC45NTEzNDk0MzE4MTgyLCJ5Ijo4MjR9LHsieCI6MTQzMy40ODQzNzUsInkiOjc4N30seyJ4IjoxNDMzLjQ4NDM3NSwieSI6NzM4fSx7IngiOjE0MzMuNDg0Mzc1LCJ5Ijo2Mzh9LHsieCI6MTQzMy40ODQzNzUsInkiOjU2Mn0seyJ4IjoxNDMzLjQ4NDM3NSwieSI6NTAxfSx7IngiOjE0MzMuNDg0Mzc1LCJ5Ijo0NDB9LHsieCI6MTQzMy40ODQzNzUsInkiOjM4OH0seyJ4IjoxNDMzLjQ4NDM3NSwieSI6MzAwfSx7IngiOjEzMTguNDgzODg2NzE4NzUsInkiOjIzOX1d" data-look="classic" marker-end="url(#my-svg_flowchart-v2-pointEnd)"/><path d="M1268.556,239L1268.923,249.167C1269.29,259.333,1270.024,279.667,1270.391,299.333C1270.758,319,1270.758,338,1270.758,347.5L1270.758,357" id="my-svg-L_ASP_LoginUI_0" class="edge-thickness-normal edge-pattern-solid edge-thickness-normal edge-pattern-solid flowchart-link" style=";" data-edge="true" data-et="edge" data-id="L_ASP_LoginUI_0" data-points="W3sieCI6MTI2OC41NTY0MTg2Nzg5NzczLCJ5IjoyMzl9LHsieCI6MTI3MC43NTc4MTI1LCJ5IjozMDB9LHsieCI6MTI3MC43NTc4MTI1LCJ5IjozNjF9XQ==" data-look="classic" marker-end="url(#my-svg_flowchart-v2-pointEnd)"/><path d="M1143.031,408.266L1109.698,413.555C1076.365,418.844,1009.698,429.422,976.365,444.878C943.031,460.333,943.031,480.667,943.031,501C943.031,521.333,943.031,541.667,943.031,555.333C943.031,569,943.031,576,943.031,579.5L943.031,583" id="my-svg-L_LoginUI_MSLOGIN_0" class="edge-thickness-normal edge-pattern-solid edge-thickness-normal edge-pattern-solid flowchart-link" style=";" data-edge="true" data-et="edge" data-id="L_LoginUI_MSLOGIN_0" data-points="W3sieCI6MTE0My4wMzEyNSwieSI6NDA4LjI2NjIyODAzODgwOX0seyJ4Ijo5NDMuMDMxMjUsInkiOjQ0MH0seyJ4Ijo5NDMuMDMxMjUsInkiOjUwMX0seyJ4Ijo5NDMuMDMxMjUsInkiOjU2Mn0seyJ4Ijo5NDMuMDMxMjUsInkiOjU4N31d" data-look="classic" marker-end="url(#my-svg_flowchart-v2-pointEnd)"/><path d="M1398.484,411.492L1424.318,416.243C1450.151,420.995,1501.818,430.497,1527.651,445.415C1553.484,460.333,1553.484,480.667,1553.484,501C1553.484,521.333,1553.484,541.667,1553.484,564.5C1553.484,587.333,1553.484,612.667,1553.484,642C1553.484,671.333,1553.484,704.667,1553.484,729.5C1553.484,754.333,1553.484,770.667,1553.484,793.5C1553.484,816.333,1553.484,845.667,1553.484,877C1553.484,908.333,1553.484,941.667,1553.484,978.75C1553.484,1015.833,1553.484,1056.667,1553.484,1099.5C1553.484,1142.333,1553.484,1187.167,1553.484,1219.083C1553.484,1251,1553.484,1270,1553.484,1279.5L1553.484,1289" id="my-svg-L_LoginUI_FAKELOGIN_0" class="edge-thickness-normal edge-pattern-dotted edge-thickness-normal edge-pattern-solid flowchart-link" style=";" data-edge="true" data-et="edge" data-id="L_LoginUI_FAKELOGIN_0" data-points="W3sieCI6MTM5OC40ODQzNzUsInkiOjQxMS40OTE4ODk4MDA3NjgyfSx7IngiOjE1NTMuNDg0Mzc1LCJ5Ijo0NDB9LHsieCI6MTU1My40ODQzNzUsInkiOjUwMX0seyJ4IjoxNTUzLjQ4NDM3NSwieSI6NTYyfSx7IngiOjE1NTMuNDg0Mzc1LCJ5Ijo2Mzh9LHsieCI6MTU1My40ODQzNzUsInkiOjczOH0seyJ4IjoxNTUzLjQ4NDM3NSwieSI6Nzg3fSx7IngiOjE1NTMuNDg0Mzc1LCJ5Ijo4NzV9LHsieCI6MTU1My40ODQzNzUsInkiOjk3NX0seyJ4IjoxNTUzLjQ4NDM3NSwieSI6MTA5Ny41fSx7IngiOjE1NTMuNDg0Mzc1LCJ5IjoxMjMyfSx7IngiOjE1NTMuNDg0Mzc1LCJ5IjoxMjkzfV0=" data-look="classic" marker-end="url(#my-svg_flowchart-v2-pointEnd)"/><path d="M943.031,689L943.031,697.167C943.031,705.333,943.031,721.667,943.031,738C943.031,754.333,943.031,770.667,852.134,790.608C761.238,810.549,579.444,834.098,488.547,845.872L397.65,857.646" id="my-svg-L_MSLOGIN_AUTHZ_0" class="edge-thickness-normal edge-pattern-solid edge-thickness-normal edge-pattern-solid flowchart-link" style=";" data-edge="true" data-et="edge" data-id="L_MSLOGIN_AUTHZ_0" data-points="W3sieCI6OTQzLjAzMTI1LCJ5Ijo2ODl9LHsieCI6OTQzLjAzMTI1LCJ5Ijo3Mzh9LHsieCI6OTQzLjAzMTI1LCJ5Ijo3ODd9LHsieCI6MzkzLjY4MzU5Mzc1LCJ5Ijo4NTguMTYwMzE1NzkwMDc4OX1d" data-look="classic" marker-end="url(#my-svg_flowchart-v2-pointEnd)"/><path d="M263.684,938L263.684,944.167C263.684,950.333,263.684,962.667,263.684,974.333C263.684,986,263.684,997,263.684,1002.5L263.684,1008" id="my-svg-L_AUTHZ_ISSUER_0" class="edge-thickness-normal edge-pattern-solid edge-thickness-normal edge-pattern-solid flowchart-link" style=";" data-edge="true" data-et="edge" data-id="L_AUTHZ_ISSUER_0" data-points="W3sieCI6MjYzLjY4MzU5Mzc1LCJ5Ijo5Mzh9LHsieCI6MjYzLjY4MzU5Mzc1LCJ5Ijo5NzV9LHsieCI6MjYzLjY4MzU5Mzc1LCJ5IjoxMDEyfV0=" data-look="classic" marker-end="url(#my-svg_flowchart-v2-pointEnd)"/><path d="M227.964,1147.28L217.832,1161.4C207.7,1175.52,187.436,1203.76,177.304,1229.38C167.172,1255,167.172,1278,167.172,1289.5L167.172,1301" id="my-svg-L_ISSUER_LIST_0" class="edge-thickness-normal edge-pattern-solid edge-thickness-normal edge-pattern-solid flowchart-link" style=";" data-edge="true" data-et="edge" data-id="L_ISSUER_LIST_0" data-points="W3sieCI6MjI3Ljk2MzUzNTkyMDE0MTU0LCJ5IjoxMTQ3LjI3OTk0MjE3MDE0MTZ9LHsieCI6MTY3LjE3MTg3NSwieSI6MTIzMn0seyJ4IjoxNjcuMTcxODc1LCJ5IjoxMzA1fV0=" data-look="classic" marker-end="url(#my-svg_flowchart-v2-pointEnd)"/><path d="M320.441,1126.243L355.246,1143.869C390.052,1161.495,459.663,1196.748,494.468,1221.874C529.273,1247,529.273,1262,529.273,1269.5L529.273,1277" id="my-svg-L_ISSUER_SHAPE_0" class="edge-thickness-normal edge-pattern-solid edge-thickness-normal edge-pattern-solid flowchart-link" style=";" data-edge="true" data-et="edge" data-id="L_ISSUER_SHAPE_0" data-points="W3sieCI6MzIwLjQ0MDY3NDY3OTA4ODIsInkiOjExMjYuMjQyOTE5MDcwOTExN30seyJ4Ijo1MjkuMjczNDM3NSwieSI6MTIzMn0seyJ4Ijo1MjkuMjczNDM3NSwieSI6MTI4MX1d" data-look="classic" marker-end="url(#my-svg_flowchart-v2-pointEnd)"/><path d="M142.056,1383L136.797,1391.167C131.537,1399.333,121.019,1415.667,279.765,1432C438.51,1448.333,766.521,1464.667,974.279,1486.522C1182.037,1508.378,1269.544,1535.755,1313.297,1549.444L1357.05,1563.133" id="my-svg-L_LIST_COOKIE_0" class="edge-thickness-normal edge-pattern-solid edge-thickness-normal edge-pattern-solid flowchart-link" style=";" data-edge="true" data-et="edge" data-id="L_LIST_COOKIE_0" data-points="W3sieCI6MTQyLjA1NTkzMDM5NzcyNzI4LCJ5IjoxMzgzfSx7IngiOjExMC41LCJ5IjoxNDMyfSx7IngiOjEwOTQuNTMxMjUsInkiOjE0ODF9LHsieCI6MTM2MC44NjcxODc1LCJ5IjoxNTY0LjMyNzQzMjkzMDU1NTJ9XQ==" data-look="classic" marker-end="url(#my-svg_flowchart-v2-pointEnd)"/><path d="M366.245,1407L355.462,1411.167C344.68,1415.333,323.115,1423.667,453.569,1436C584.023,1448.333,866.496,1464.667,1042.422,1485.415C1218.348,1506.163,1287.727,1531.325,1322.417,1543.906L1357.107,1556.488" id="my-svg-L_SHAPE_COOKIE_0" class="edge-thickness-normal edge-pattern-solid edge-thickness-normal edge-pattern-solid flowchart-link" style=";" data-edge="true" data-et="edge" data-id="L_SHAPE_COOKIE_0" data-points="W3sieCI6MzY2LjI0NDcxNzY4NDY1OTEsInkiOjE0MDd9LHsieCI6MzAxLjU1MDc4MTI1LCJ5IjoxNDMyfSx7IngiOjExNDguOTY4NzUsInkiOjE0ODF9LHsieCI6MTM2MC44NjcxODc1LCJ5IjoxNTU3Ljg1MTQ5NTU1NTYwNjN9XQ==" data-look="classic" marker-end="url(#my-svg_flowchart-v2-pointEnd)"/><path d="M285.516,1381.811L311.697,1390.176C337.878,1398.541,390.24,1415.27,653.953,1431.802C917.667,1448.333,1392.732,1464.667,1661.443,1484.885C1930.155,1505.103,1992.513,1529.206,2023.692,1541.258L2054.871,1553.309" id="my-svg-L_LIST_E401_0" class="edge-thickness-normal edge-pattern-dotted edge-thickness-normal edge-pattern-solid flowchart-link" style=";" data-edge="true" data-et="edge" data-id="L_LIST_E401_0" data-points="W3sieCI6Mjg1LjUxNTYyNSwieSI6MTM4MS44MTA5MjA0MzY4MTc1fSx7IngiOjQ0Mi42MDE1NjI1LCJ5IjoxNDMyfSx7IngiOjE4NjcuNzk2ODc1LCJ5IjoxNDgxfSx7IngiOjIwNTguNjAxNTYyNSwieSI6MTU1NC43NTEzNTc2Njk5MjE4fV0=" data-look="classic" marker-end="url(#my-svg_flowchart-v2-pointEnd)"/><path d="M603.999,1407L608.941,1411.167C613.884,1415.333,623.768,1423.667,872.622,1436C1121.477,1448.333,1609.301,1464.667,1860.317,1482.464C2111.334,1500.26,2125.542,1519.521,2132.647,1529.151L2139.751,1538.781" id="my-svg-L_SHAPE_E401_0" class="edge-thickness-normal edge-pattern-dotted edge-thickness-normal edge-pattern-solid flowchart-link" style=";" data-edge="true" data-et="edge" data-id="L_SHAPE_E401_0" data-points="W3sieCI6NjAzLjk5OTI0NTM4MzUyMjcsInkiOjE0MDd9LHsieCI6NjMzLjY1MjM0Mzc1LCJ5IjoxNDMyfSx7IngiOjIwOTcuMTI1LCJ5IjoxNDgxfSx7IngiOjIxNDIuMTI1NTY3MDM2MjkwMiwieSI6MTU0Mn1d" data-look="classic" marker-end="url(#my-svg_flowchart-v2-pointEnd)"/><path d="M1553.484,1395L1553.484,1401.167C1553.484,1407.333,1553.484,1419.667,1553.484,1434C1553.484,1448.333,1553.484,1464.667,1549.661,1480.405C1545.837,1496.143,1538.19,1511.286,1534.367,1518.858L1530.544,1526.429" id="my-svg-L_FAKELOGIN_COOKIE_0" class="edge-thickness-normal edge-pattern-solid edge-thickness-normal edge-pattern-solid flowchart-link" style=";" data-edge="true" data-et="edge" data-id="L_FAKELOGIN_COOKIE_0" data-points="W3sieCI6MTU1My40ODQzNzUsInkiOjEzOTV9LHsieCI6MTU1My40ODQzNzUsInkiOjE0MzJ9LHsieCI6MTU1My40ODQzNzUsInkiOjE0ODF9LHsieCI6MTUyOC43NDA0ODYzOTExMjksInkiOjE1MzB9XQ==" data-look="classic" marker-end="url(#my-svg_flowchart-v2-pointEnd)"/><path d="M1620.867,1534.179L1637.137,1525.316C1653.406,1516.453,1685.945,1498.726,1702.215,1481.697C1718.484,1464.667,1718.484,1448.333,1718.484,1425.5C1718.484,1402.667,1718.484,1373.333,1718.484,1340C1718.484,1306.667,1718.484,1269.333,1718.484,1228.25C1718.484,1187.167,1718.484,1142.333,1718.484,1099.5C1718.484,1056.667,1718.484,1015.833,1718.484,978.75C1718.484,941.667,1718.484,908.333,1718.484,877C1718.484,845.667,1718.484,816.333,1718.484,793.5C1718.484,770.667,1718.484,754.333,1718.484,729.5C1718.484,704.667,1718.484,671.333,1718.484,642C1718.484,612.667,1718.484,587.333,1718.484,564.5C1718.484,541.667,1718.484,521.333,1718.484,501C1718.484,480.667,1718.484,460.333,1718.484,441.5C1718.484,422.667,1718.484,405.333,1718.484,382C1718.484,358.667,1718.484,329.333,1718.484,300C1718.484,270.667,1718.484,241.333,1718.484,216C1718.484,190.667,1718.484,169.333,1717.612,153.158C1716.739,136.984,1714.994,125.967,1714.122,120.459L1713.249,114.951" id="my-svg-L_COOKIE_SPA_0" class="edge-thickness-normal edge-pattern-solid edge-thickness-normal edge-pattern-solid flowchart-link" style=";" data-edge="true" data-et="edge" data-id="L_COOKIE_SPA_0" data-points="W3sieCI6MTYyMC44NjcxODc1LCJ5IjoxNTM0LjE3OTMzNzU2NjUwMDl9LHsieCI6MTcxOC40ODQzNzUsInkiOjE0ODF9LHsieCI6MTcxOC40ODQzNzUsInkiOjE0MzJ9LHsieCI6MTcxOC40ODQzNzUsInkiOjEzNDR9LHsieCI6MTcxOC40ODQzNzUsInkiOjEyMzJ9LHsieCI6MTcxOC40ODQzNzUsInkiOjEwOTcuNX0seyJ4IjoxNzE4LjQ4NDM3NSwieSI6OTc1fSx7IngiOjE3MTguNDg0Mzc1LCJ5Ijo4NzV9LHsieCI6MTcxOC40ODQzNzUsInkiOjc4N30seyJ4IjoxNzE4LjQ4NDM3NSwieSI6NzM4fSx7IngiOjE3MTguNDg0Mzc1LCJ5Ijo2Mzh9LHsieCI6MTcxOC40ODQzNzUsInkiOjU2Mn0seyJ4IjoxNzE4LjQ4NDM3NSwieSI6NTAxfSx7IngiOjE3MTguNDg0Mzc1LCJ5Ijo0NDB9LHsieCI6MTcxOC40ODQzNzUsInkiOjM4OH0seyJ4IjoxNzE4LjQ4NDM3NSwieSI6MzAwfSx7IngiOjE3MTguNDg0Mzc1LCJ5IjoyMTJ9LHsieCI6MTcxOC40ODQzNzUsInkiOjE0OH0seyJ4IjoxNzEyLjYyMzI1MjQ2NzEwNTIsInkiOjExMX1d" data-look="classic" marker-end="url(#my-svg_flowchart-v2-pointEnd)"/><path d="M1843.82,101.59L1879.73,109.325C1915.641,117.06,1987.461,132.53,2023.371,150.932C2059.281,169.333,2059.281,190.667,2059.281,216C2059.281,241.333,2059.281,270.667,2059.281,300C2059.281,329.333,2059.281,358.667,2059.281,382C2059.281,405.333,2059.281,422.667,2059.281,441.5C2059.281,460.333,2059.281,480.667,2059.281,501C2059.281,521.333,2059.281,541.667,2059.281,564.5C2059.281,587.333,2059.281,612.667,2059.281,642C2059.281,671.333,2059.281,704.667,2059.281,729.5C2059.281,754.333,2059.281,770.667,2059.281,793.5C2059.281,816.333,2059.281,845.667,2059.281,877C2059.281,908.333,2059.281,941.667,2059.281,978.75C2059.281,1015.833,2059.281,1056.667,2059.281,1099.5C2059.281,1142.333,2059.281,1187.167,2074.786,1217.448C2090.292,1247.73,2121.302,1263.46,2136.807,1271.325L2152.313,1279.19" id="my-svg-L_SPA_POLICY_0" class="edge-thickness-normal edge-pattern-solid edge-thickness-normal edge-pattern-solid flowchart-link" style=";" data-edge="true" data-et="edge" data-id="L_SPA_POLICY_0" data-points="W3sieCI6MTg0My44MjAzMTI1LCJ5IjoxMDEuNTkwMjM5Nzk4MDY0Nzl9LHsieCI6MjA1OS4yODEyNSwieSI6MTQ4fSx7IngiOjIwNTkuMjgxMjUsInkiOjIxMn0seyJ4IjoyMDU5LjI4MTI1LCJ5IjozMDB9LHsieCI6MjA1OS4yODEyNSwieSI6Mzg4fSx7IngiOjIwNTkuMjgxMjUsInkiOjQ0MH0seyJ4IjoyMDU5LjI4MTI1LCJ5Ijo1MDF9LHsieCI6MjA1OS4yODEyNSwieSI6NTYyfSx7IngiOjIwNTkuMjgxMjUsInkiOjYzOH0seyJ4IjoyMDU5LjI4MTI1LCJ5Ijo3Mzh9LHsieCI6MjA1OS4yODEyNSwieSI6Nzg3fSx7IngiOjIwNTkuMjgxMjUsInkiOjg3NX0seyJ4IjoyMDU5LjI4MTI1LCJ5Ijo5NzV9LHsieCI6MjA1OS4yODEyNSwieSI6MTA5Ny41fSx7IngiOjIwNTkuMjgxMjUsInkiOjEyMzJ9LHsieCI6MjE1NS44Nzk4ODI4MTI1LCJ5IjoxMjgxfV0=" data-look="classic" marker-end="url(#my-svg_flowchart-v2-pointEnd)"/><path d="M2410.078,1379.979L2441.405,1388.649C2472.732,1397.32,2535.385,1414.66,2566.712,1431.497C2598.039,1448.333,2598.039,1464.667,2624.35,1486.689C2650.661,1508.712,2703.283,1536.424,2729.594,1550.28L2755.905,1564.136" id="my-svg-L_POLICY_APIOK_0" class="edge-thickness-normal edge-pattern-solid edge-thickness-normal edge-pattern-solid flowchart-link" style=";" data-edge="true" data-et="edge" data-id="L_POLICY_APIOK_0" data-points="W3sieCI6MjQxMC4wNzgxMjUsInkiOjEzNzkuOTc5MjYyMzg5NzM5Mn0seyJ4IjoyNTk4LjAzOTA2MjUsInkiOjE0MzJ9LHsieCI6MjU5OC4wMzkwNjI1LCJ5IjoxNDgxfSx7IngiOjI3NTkuNDQzNzM3Mzk5MTkzNywieSI6MTU2Nn1d" data-look="classic" marker-end="url(#my-svg_flowchart-v2-pointEnd)"/><path d="M2280.078,1407L2280.078,1411.167C2280.078,1415.333,2280.078,1423.667,2280.078,1436C2280.078,1448.333,2280.078,1464.667,2272.974,1482.464C2265.869,1500.26,2251.661,1519.521,2244.556,1529.151L2237.452,1538.781" id="my-svg-L_POLICY_E401_0" class="edge-thickness-normal edge-pattern-solid edge-thickness-normal edge-pattern-solid flowchart-link" style=";" data-edge="true" data-et="edge" data-id="L_POLICY_E401_0" data-points="W3sieCI6MjI4MC4wNzgxMjUsInkiOjE0MDd9LHsieCI6MjI4MC4wNzgxMjUsInkiOjE0MzJ9LHsieCI6MjI4MC4wNzgxMjUsInkiOjE0ODF9LHsieCI6MjIzNS4wNzc1NTc5NjM3MDk4LCJ5IjoxNTQyfV0=" data-look="classic" marker-end="url(#my-svg_flowchart-v2-pointEnd)"/><path d="M2318.602,1557.445L2353.431,1544.704C2388.26,1531.963,2457.919,1506.482,2492.749,1485.574C2527.578,1464.667,2527.578,1448.333,2527.578,1425.5C2527.578,1402.667,2527.578,1373.333,2527.578,1340C2527.578,1306.667,2527.578,1269.333,2527.578,1228.25C2527.578,1187.167,2527.578,1142.333,2527.578,1099.5C2527.578,1056.667,2527.578,1015.833,2527.578,978.75C2527.578,941.667,2527.578,908.333,2527.578,877C2527.578,845.667,2527.578,816.333,2527.578,793.5C2527.578,770.667,2527.578,754.333,2527.578,729.5C2527.578,704.667,2527.578,671.333,2527.578,642C2527.578,612.667,2527.578,587.333,2527.578,564.5C2527.578,541.667,2527.578,521.333,2527.578,501C2527.578,480.667,2527.578,460.333,2527.578,441.5C2527.578,422.667,2527.578,405.333,2527.578,382C2527.578,358.667,2527.578,329.333,2341.897,301.698C2156.217,274.064,1784.855,248.127,1599.175,235.159L1413.494,222.191" id="my-svg-L_E401_ASP_0" class="edge-thickness-normal edge-pattern-solid edge-thickness-normal edge-pattern-solid flowchart-link" style=";" data-edge="true" data-et="edge" data-id="L_E401_ASP_0" data-points="W3sieCI6MjMxOC42MDE1NjI1LCJ5IjoxNTU3LjQ0NTA4OTc2OTI5NjR9LHsieCI6MjUyNy41NzgxMjUsInkiOjE0ODF9LHsieCI6MjUyNy41NzgxMjUsInkiOjE0MzJ9LHsieCI6MjUyNy41NzgxMjUsInkiOjEzNDR9LHsieCI6MjUyNy41NzgxMjUsInkiOjEyMzJ9LHsieCI6MjUyNy41NzgxMjUsInkiOjEwOTcuNX0seyJ4IjoyNTI3LjU3ODEyNSwieSI6OTc1fSx7IngiOjI1MjcuNTc4MTI1LCJ5Ijo4NzV9LHsieCI6MjUyNy41NzgxMjUsInkiOjc4N30seyJ4IjoyNTI3LjU3ODEyNSwieSI6NzM4fSx7IngiOjI1MjcuNTc4MTI1LCJ5Ijo2Mzh9LHsieCI6MjUyNy41NzgxMjUsInkiOjU2Mn0seyJ4IjoyNTI3LjU3ODEyNSwieSI6NTAxfSx7IngiOjI1MjcuNTc4MTI1LCJ5Ijo0NDB9LHsieCI6MjUyNy41NzgxMjUsInkiOjM4OH0seyJ4IjoyNTI3LjU3ODEyNSwieSI6MzAwfSx7IngiOjE0MDkuNTAzOTA2MjUsInkiOjIyMS45MTIwMzQ2OTc1MjgyfV0=" data-look="classic" marker-end="url(#my-svg_flowchart-v2-pointEnd)"/><path d="M2362.578,1160.5L2362.578,1172.417C2362.578,1184.333,2362.578,1208.167,2356.958,1227.713C2351.338,1247.26,2340.097,1262.52,2334.477,1270.15L2328.857,1277.779" id="my-svg-L_FAKEH_POLICY_0" class="edge-thickness-normal edge-pattern-dotted edge-thickness-normal edge-pattern-solid flowchart-link" style=";" data-edge="true" data-et="edge" data-id="L_FAKEH_POLICY_0" data-points="W3sieCI6MjM2Mi41NzgxMjUsInkiOjExNjAuNX0seyJ4IjoyMzYyLjU3ODEyNSwieSI6MTIzMn0seyJ4IjoyMzI2LjQ4NDM3NSwieSI6MTI4MX1d" data-look="classic" marker-end="url(#my-svg_flowchart-v2-pointEnd)"/><path d="M1264.57,665L1264.57,677.167C1264.57,689.333,1264.57,713.667,1264.57,734C1264.57,754.333,1264.57,770.667,1263.451,784.347C1262.332,798.027,1260.093,809.053,1258.973,814.567L1257.854,820.08" id="my-svg-L_LOGOUT_ME_0" class="edge-thickness-normal edge-pattern-solid edge-thickness-normal edge-pattern-solid flowchart-link" style=";" data-edge="true" data-et="edge" data-id="L_LOGOUT_ME_0" data-points="W3sieCI6MTI2NC41NzAzMTI1LCJ5Ijo2NjV9LHsieCI6MTI2NC41NzAzMTI1LCJ5Ijo3Mzh9LHsieCI6MTI2NC41NzAzMTI1LCJ5Ijo3ODd9LHsieCI6MTI1Ny4wNTc5NzIzMDExMzYzLCJ5Ijo4MjR9XQ==" data-look="classic" marker-end="url(#my-svg_flowchart-v2-pointEnd)"/></g><g class="edgeLabels"><g class="edgeLabel" transform="translate(1267.58203125, 148)"><g class="label" data-id="L_SPA_ASP_0" transform="translate(-72.234375, -12)"><foreignObject width="144.46875" height="24"><div xmlns="http://www.w3.org/1999/xhtml" class="labelBkg" style="display: table-cell; white-space: nowrap; line-height: 1.5; max-width: 200px; text-align: center;"><span class="edgeLabel"><p>boot / route change</p></span></div></foreignObject></g></g><g class="edgeLabel" transform="translate(1108.03125, 501)"><g class="label" data-id="L_ASP_ME_0" transform="translate(-57.9140625, -12)"><foreignObject width="115.828125" height="24"><div xmlns="http://www.w3.org/1999/xhtml" class="labelBkg" style="display: table-cell; white-space: nowrap; line-height: 1.5; max-width: 200px; text-align: center;"><span class="edgeLabel"><p>fetch auth state</p></span></div></foreignObject></g></g><g class="edgeLabel" transform="translate(1433.484375, 501)"><g class="label" data-id="L_ME_ASP_0" transform="translate(-100, -36)"><foreignObject width="200" height="72"><div xmlns="http://www.w3.org/1999/xhtml" class="labelBkg" style="display: table; white-space: break-spaces; line-height: 1.5; max-width: 200px; text-align: center; width: 200px;"><span class="edgeLabel"><p>AuthStateDto {IsAuthenticated, Name, Roles}</p></span></div></foreignObject></g></g><g class="edgeLabel" transform="translate(1270.7578125, 300)"><g class="label" data-id="L_ASP_LoginUI_0" transform="translate(-100, -36)"><foreignObject width="200" height="72"><div xmlns="http://www.w3.org/1999/xhtml" class="labelBkg" style="display: table; white-space: break-spaces; line-height: 1.5; max-width: 200px; text-align: center; width: 200px;"><span class="edgeLabel"><p>unauthenticated → AuthorizeRouteView renders</p></span></div></foreignObject></g></g><g class="edgeLabel" transform="translate(943.03125, 501)"><g class="label" data-id="L_LoginUI_MSLOGIN_0" transform="translate(-77.15625, -12)"><foreignObject width="154.3125" height="24"><div xmlns="http://www.w3.org/1999/xhtml" class="labelBkg" style="display: table-cell; white-space: nowrap; line-height: 1.5; max-width: 200px; text-align: center;"><span class="edgeLabel"><p>Sign in with Microsoft</p></span></div></foreignObject></g></g><g class="edgeLabel" transform="translate(1553.484375, 875)"><g class="label" data-id="L_LoginUI_FAKELOGIN_0" transform="translate(-100, -24)"><foreignObject width="200" height="48"><div xmlns="http://www.w3.org/1999/xhtml" class="labelBkg" style="display: table; white-space: break-spaces; line-height: 1.5; max-width: 200px; text-align: center; width: 200px;"><span class="edgeLabel"><p>Continue as Guest (Dev/Test only)</p></span></div></foreignObject></g></g><g class="edgeLabel" transform="translate(943.03125, 738)"><g class="label" data-id="L_MSLOGIN_AUTHZ_0" transform="translate(-76.6015625, -12)"><foreignObject width="153.203125" height="24"><div xmlns="http://www.w3.org/1999/xhtml" class="labelBkg" style="display: table-cell; white-space: nowrap; line-height: 1.5; max-width: 200px; text-align: center;"><span class="edgeLabel"><p>Challenge('Microsoft')</p></span></div></foreignObject></g></g><g class="edgeLabel" transform="translate(263.68359375, 975)"><g class="label" data-id="L_AUTHZ_ISSUER_0" transform="translate(-72.578125, -12)"><foreignObject width="145.15625" height="24"><div xmlns="http://www.w3.org/1999/xhtml" class="labelBkg" style="display: table-cell; white-space: nowrap; line-height: 1.5; max-width: 200px; text-align: center;"><span class="edgeLabel"><p>code → /signin-oidc</p></span></div></foreignObject></g></g><g class="edgeLabel" transform="translate(167.171875, 1232)"><g class="label" data-id="L_ISSUER_LIST_0" transform="translate(-96.4609375, -12)"><foreignObject width="192.921875" height="24"><div xmlns="http://www.w3.org/1999/xhtml" class="labelBkg" style="display: table-cell; white-space: nowrap; line-height: 1.5; max-width: 200px; text-align: center;"><span class="edgeLabel"><p>AllowedTenants configured</p></span></div></foreignObject></g></g><g class="edgeLabel" transform="translate(529.2734375, 1232)"><g class="label" data-id="L_ISSUER_SHAPE_0" transform="translate(-44.234375, -12)"><foreignObject width="88.46875" height="24"><div xmlns="http://www.w3.org/1999/xhtml" class="labelBkg" style="display: table-cell; white-space: nowrap; line-height: 1.5; max-width: 200px; text-align: center;"><span class="edgeLabel"><p>no allow-list</p></span></div></foreignObject></g></g><g class="edgeLabel" transform="translate(712.77149, 1461.99021)"><g class="label" data-id="L_LIST_COOKIE_0" transform="translate(-17.21875, -12)"><foreignObject width="34.4375" height="24"><div xmlns="http://www.w3.org/1999/xhtml" class="labelBkg" style="display: table-cell; white-space: nowrap; line-height: 1.5; max-width: 200px; text-align: center;"><span class="edgeLabel"><p>valid</p></span></div></foreignObject></g></g><g class="edgeLabel" transform="translate(803.15363, 1461.00403)"><g class="label" data-id="L_SHAPE_COOKIE_0" transform="translate(-17.21875, -12)"><foreignObject width="34.4375" height="24"><div xmlns="http://www.w3.org/1999/xhtml" class="labelBkg" style="display: table-cell; white-space: nowrap; line-height: 1.5; max-width: 200px; text-align: center;"><span class="edgeLabel"><p>valid</p></span></div></foreignObject></g></g><g class="edgeLabel" transform="translate(1175.01417, 1457.18126)"><g class="label" data-id="L_LIST_E401_0" transform="translate(-129.3125, -24)"><foreignObject width="258.625" height="48"><div xmlns="http://www.w3.org/1999/xhtml" class="labelBkg" style="display: table; white-space: break-spaces; line-height: 1.5; max-width: 200px; text-align: center; width: 200px;"><span class="edgeLabel"><p>invalid → SecurityTokenInvalidIssuerException</p></span></div></foreignObject></g></g><g class="edgeLabel" transform="translate(1383.88697, 1457.11936)"><g class="label" data-id="L_SHAPE_E401_0" transform="translate(-80.015625, -12)"><foreignObject width="160.03125" height="24"><div xmlns="http://www.w3.org/1999/xhtml" class="labelBkg" style="display: table-cell; white-space: nowrap; line-height: 1.5; max-width: 200px; text-align: center;"><span class="edgeLabel"><p>invalid issuer rejected</p></span></div></foreignObject></g></g><g class="edgeLabel" transform="translate(1553.484375, 1481)"><g class="label" data-id="L_FAKELOGIN_COOKIE_0" transform="translate(-88.015625, -12)"><foreignObject width="176.03125" height="24"><div xmlns="http://www.w3.org/1999/xhtml" class="labelBkg" style="display: table-cell; white-space: nowrap; line-height: 1.5; max-width: 200px; text-align: center;"><span class="edgeLabel"><p>SignInAsync guest claims</p></span></div></foreignObject></g></g><g class="edgeLabel" transform="translate(1718.484375, 738)"><g class="label" data-id="L_COOKIE_SPA_0" transform="translate(-100, -24)"><foreignObject width="200" height="48"><div xmlns="http://www.w3.org/1999/xhtml" class="labelBkg" style="display: table; white-space: break-spaces; line-height: 1.5; max-width: 200px; text-align: center; width: 200px;"><span class="edgeLabel"><p>Set-Cookie + redirect to sanitized returnUrl</p></span></div></foreignObject></g></g><g class="edgeLabel" transform="translate(2059.28125, 638)"><g class="label" data-id="L_SPA_POLICY_0" transform="translate(-100, -24)"><foreignObject width="200" height="48"><div xmlns="http://www.w3.org/1999/xhtml" class="labelBkg" style="display: table; white-space: break-spaces; line-height: 1.5; max-width: 200px; text-align: center; width: 200px;"><span class="edgeLabel"><p>same-origin API calls carry cookie automatically</p></span></div></foreignObject></g></g><g class="edgeLabel" transform="translate(2598.0390625, 1481)"><g class="label" data-id="L_POLICY_APIOK_0" transform="translate(-50.4609375, -12)"><foreignObject width="100.921875" height="24"><div xmlns="http://www.w3.org/1999/xhtml" class="labelBkg" style="display: table-cell; white-space: nowrap; line-height: 1.5; max-width: 200px; text-align: center;"><span class="edgeLabel"><p>authenticated</p></span></div></foreignObject></g></g><g class="edgeLabel" transform="translate(2280.078125, 1481)"><g class="label" data-id="L_POLICY_E401_0" transform="translate(-82.9375, -12)"><foreignObject width="165.875" height="24"><div xmlns="http://www.w3.org/1999/xhtml" class="labelBkg" style="display: table-cell; white-space: nowrap; line-height: 1.5; max-width: 200px; text-align: center;"><span class="edgeLabel"><p>missing/expired cookie</p></span></div></foreignObject></g></g><g class="edgeLabel" transform="translate(2527.578125, 875)"><g class="label" data-id="L_E401_ASP_0" transform="translate(-100, -24)"><foreignObject width="200" height="48"><div xmlns="http://www.w3.org/1999/xhtml" class="labelBkg" style="display: table; white-space: break-spaces; line-height: 1.5; max-width: 200px; text-align: center; width: 200px;"><span class="edgeLabel"><p>401 → provider re-probes /auth/me → Login view</p></span></div></foreignObject></g></g><g class="edgeLabel" transform="translate(2362.578125, 1232)"><g class="label" data-id="L_FAKEH_POLICY_0" transform="translate(-100, -24)"><foreignObject width="200" height="48"><div xmlns="http://www.w3.org/1999/xhtml" class="labelBkg" style="display: table; white-space: break-spaces; line-height: 1.5; max-width: 200px; text-align: center; width: 200px;"><span class="edgeLabel"><p>test scheme accepted outside Production</p></span></div></foreignObject></g></g><g class="edgeLabel" transform="translate(1264.5703125, 738)"><g class="label" data-id="L_LOGOUT_ME_0" transform="translate(-96.96875, -12)"><foreignObject width="193.9375" height="24"><div xmlns="http://www.w3.org/1999/xhtml" class="labelBkg" style="display: table-cell; white-space: nowrap; line-height: 1.5; max-width: 200px; text-align: center;"><span class="edgeLabel"><p>SignOutAsync clears cookie</p></span></div></foreignObject></g></g></g><g class="nodes"><g class="node default" id="my-svg-flowchart-SPA-0" data-look="classic" transform="translate(1706.4453125, 72)"><rect class="basic label-container" style="" x="-137.375" y="-39" width="274.75" height="78"/><g class="label" style="" transform="translate(-107.375, -24)"><rect/><foreignObject width="214.75" height="48"><div xmlns="http://www.w3.org/1999/xhtml" style="display: table; white-space: break-spaces; line-height: 1.5; max-width: 200px; text-align: center; width: 200px;"><span class="nodeLabel"><p>App.razor<br />CascadingAuthenticationState</p></span></div></foreignObject></g></g><g class="node default" id="my-svg-flowchart-ASP-1" data-look="classic" transform="translate(1267.58203125, 212)"><rect class="basic label-container" style="" x="-141.921875" y="-27" width="283.84375" height="54"/><g class="label" style="" transform="translate(-111.921875, -12)"><rect/><foreignObject width="223.84375" height="24"><div xmlns="http://www.w3.org/1999/xhtml" style="display: table; white-space: break-spaces; line-height: 1.5; max-width: 200px; text-align: center; width: 200px;"><span class="nodeLabel"><p>BffAuthenticationStateProvider</p></span></div></foreignObject></g></g><g class="node default" id="my-svg-flowchart-LoginUI-2" data-look="classic" transform="translate(1270.7578125, 388)"><rect class="basic label-container" style="" x="-127.7265625" y="-27" width="255.453125" height="54"/><g class="label" style="" transform="translate(-97.7265625, -12)"><rect/><foreignObject width="195.453125" height="24"><div xmlns="http://www.w3.org/1999/xhtml" style="display: table-cell; white-space: nowrap; line-height: 1.5; max-width: 200px; text-align: center;"><span class="nodeLabel"><p>Login view (NotAuthorized)</p></span></div></foreignObject></g></g><g class="node default" id="my-svg-flowchart-ME-3" data-look="classic" transform="translate(1246.703125, 875)"><rect class="basic label-container" style="" x="-130" y="-51" width="260" height="102"/><g class="label" style="" transform="translate(-100, -36)"><rect/><foreignObject width="200" height="72"><div xmlns="http://www.w3.org/1999/xhtml" style="display: table; white-space: break-spaces; line-height: 1.5; max-width: 200px; text-align: center; width: 200px;"><span class="nodeLabel"><p>GET /auth/me<br />AllowAnonymous — never 401s</p></span></div></foreignObject></g></g><g class="node default" id="my-svg-flowchart-MSLOGIN-4" data-look="classic" transform="translate(943.03125, 638)"><rect class="basic label-container" style="" x="-130" y="-51" width="260" height="102"/><g class="label" style="" transform="translate(-100, -36)"><rect/><foreignObject width="200" height="72"><div xmlns="http://www.w3.org/1999/xhtml" style="display: table; white-space: break-spaces; line-height: 1.5; max-width: 200px; text-align: center; width: 200px;"><span class="nodeLabel"><p>GET /auth/login/microsoft<br />returnUrl sanitized: local, starts with /, not //</p></span></div></foreignObject></g></g><g class="node default" id="my-svg-flowchart-FAKELOGIN-5" data-look="classic" transform="translate(1553.484375, 1344)"><rect class="basic label-container" style="" x="-130" y="-51" width="260" height="102"/><g class="label" style="" transform="translate(-100, -36)"><rect/><foreignObject width="200" height="72"><div xmlns="http://www.w3.org/1999/xhtml" style="display: table; white-space: break-spaces; line-height: 1.5; max-width: 200px; text-align: center; width: 200px;"><span class="nodeLabel"><p>GET /auth/login/fake<br />NON-PRODUCTION guest bypass</p></span></div></foreignObject></g></g><g class="node default" id="my-svg-flowchart-LOGOUT-6" data-look="classic" transform="translate(1264.5703125, 638)"><rect class="basic label-container" style="" x="-97.625" y="-27" width="195.25" height="54"/><g class="label" style="" transform="translate(-67.625, -12)"><rect/><foreignObject width="135.25" height="24"><div xmlns="http://www.w3.org/1999/xhtml" style="display: table-cell; white-space: nowrap; line-height: 1.5; max-width: 200px; text-align: center;"><span class="nodeLabel"><p>POST /auth/logout</p></span></div></foreignObject></g></g><g class="node default" id="my-svg-flowchart-COOKIE-7" data-look="classic" transform="translate(1490.8671875, 1605)"><rect class="basic label-container" style="" x="-130" y="-75" width="260" height="150"/><g class="label" style="" transform="translate(-100, -60)"><rect/><foreignObject width="200" height="120"><div xmlns="http://www.w3.org/1999/xhtml" style="display: table; white-space: break-spaces; line-height: 1.5; max-width: 200px; text-align: center; width: 200px;"><span class="nodeLabel"><p>Cookie auth scheme<br />PoLocalCompare.Session<br />HttpOnly · SameSite=Strict · Secure<br />8h sliding expiry</p></span></div></foreignObject></g></g><g class="node default" id="my-svg-flowchart-E401-8" data-look="classic" transform="translate(2188.6015625, 1605)"><rect class="basic label-container" style="" x="-130" y="-63" width="260" height="126"/><g class="label" style="" transform="translate(-100, -48)"><rect/><foreignObject width="200" height="96"><div xmlns="http://www.w3.org/1999/xhtml" style="display: table; white-space: break-spaces; line-height: 1.5; max-width: 200px; text-align: center; width: 200px;"><span class="nodeLabel"><p>OnRedirectToLogin → 401 JSON<br />OnAccessDenied → 403<br />(never a 302 to HTML)</p></span></div></foreignObject></g></g><g class="node default" id="my-svg-flowchart-POLICY-9" data-look="classic" transform="translate(2280.078125, 1344)"><rect class="basic label-container" style="" x="-130" y="-63" width="260" height="126"/><g class="label" style="" transform="translate(-100, -48)"><rect/><foreignObject width="200" height="96"><div xmlns="http://www.w3.org/1999/xhtml" style="display: table; white-space: break-spaces; line-height: 1.5; max-width: 200px; text-align: center; width: 200px;"><span class="nodeLabel"><p>FallbackPolicy = RequireAuthenticatedUser<br />deny-by-default; AllowAnonymous is explicit</p></span></div></foreignObject></g></g><g class="node default" id="my-svg-flowchart-FAKEH-10" data-look="classic" transform="translate(2362.578125, 1097.5)"><rect class="basic label-container" style="" x="-130" y="-63" width="260" height="126"/><g class="label" style="" transform="translate(-100, -48)"><rect/><foreignObject width="200" height="96"><div xmlns="http://www.w3.org/1999/xhtml" style="display: table; white-space: break-spaces; line-height: 1.5; max-width: 200px; text-align: center; width: 200px;"><span class="nodeLabel"><p>FakeAuthHandler (X-Fake-User headers)<br />throws if constructed in Production</p></span></div></foreignObject></g></g><g class="node default" id="my-svg-flowchart-AUTHZ-11" data-look="classic" transform="translate(263.68359375, 875)"><rect class="basic label-container" style="" x="-130" y="-63" width="260" height="126"/><g class="label" style="" transform="translate(-100, -48)"><rect/><foreignObject width="200" height="96"><div xmlns="http://www.w3.org/1999/xhtml" style="display: table; white-space: break-spaces; line-height: 1.5; max-width: 200px; text-align: center; width: 200px;"><span class="nodeLabel"><p>Authority /common/v2.0<br />authorization_code + PKCE<br />scopes: openid profile email</p></span></div></foreignObject></g></g><g class="node default" id="my-svg-flowchart-ISSUER-12" data-look="classic" transform="translate(263.68359375, 1097.5)"><polygon points="85.5,0 171,-85.5 85.5,-171 0,-85.5" class="label-container" transform="translate(-85, 85.5)"/><g class="label" style="" transform="translate(-58.5, -12)"><rect/><foreignObject width="117" height="24"><div xmlns="http://www.w3.org/1999/xhtml" style="display: table-cell; white-space: nowrap; line-height: 1.5; max-width: 200px; text-align: center;"><span class="nodeLabel"><p>Issuer validation</p></span></div></foreignObject></g></g><g class="node default" id="my-svg-flowchart-LIST-13" data-look="classic" transform="translate(167.171875, 1344)"><rect class="basic label-container" style="" x="-118.34375" y="-39" width="236.6875" height="78"/><g class="label" style="" transform="translate(-88.34375, -24)"><rect/><foreignObject width="176.6875" height="48"><div xmlns="http://www.w3.org/1999/xhtml" style="display: table-cell; white-space: nowrap; line-height: 1.5; max-width: 200px; text-align: center;"><span class="nodeLabel"><p>AzureAd:AllowedTenants<br />explicit allow-list</p></span></div></foreignObject></g></g><g class="node default" id="my-svg-flowchart-SHAPE-14" data-look="classic" transform="translate(529.2734375, 1344)"><rect class="basic label-container" style="" x="-193.7578125" y="-63" width="387.515625" height="126"/><g class="label" style="" transform="translate(-163.7578125, -48)"><rect/><foreignObject width="327.515625" height="96"><div xmlns="http://www.w3.org/1999/xhtml" style="display: table; white-space: break-spaces; line-height: 1.5; max-width: 200px; text-align: center; width: 200px;"><span class="nodeLabel"><p>Shape regex: login.microsoftonline.com/{tenantGuid}/v2.0<br />accepts work/school AND personal MSA tenant</p></span></div></foreignObject></g></g><g class="node default" id="my-svg-flowchart-APIOK-50" data-look="classic" transform="translate(2833.5, 1605)"><rect class="basic label-container" style="" x="-130" y="-39" width="260" height="78"/><g class="label" style="" transform="translate(-100, -24)"><rect/><foreignObject width="200" height="48"><div xmlns="http://www.w3.org/1999/xhtml" style="display: table; white-space: break-spaces; line-height: 1.5; max-width: 200px; text-align: center; width: 200px;"><span class="nodeLabel"><p>Feature endpoints + SignalR hubs</p></span></div></foreignObject></g></g></g></g></g><defs><filter id="my-svg-drop-shadow" height="130%" width="130%"><feDropShadow dx="4" dy="4" stdDeviation="0" flood-opacity="0.06" flood-color="#000000"/></filter></defs><defs><filter id="my-svg-drop-shadow-small" height="150%" width="150%"><feDropShadow dx="2" dy="2" stdDeviation="0" flood-opacity="0.06" flood-color="#000000"/></filter></defs></svg>